<?xml version="1.0" encoding="utf-8"?>
<!-- Generator: Adobe Illustrator 19.0.0, SVG Export Plug-In . SVG Version: 6.00 Build 0)  -->
<svg version="1.1" id="Layer_1" xmlns="http://www.w3.org/2000/svg" xmlns:xlink="http://www.w3.org/1999/xlink" x="0px" y="0px"
	 viewBox="-340 198.3 160 200" style="enable-background:new -340 198.3 160 200;" xml:space="preserve">
<style type="text/css">
	.st0{opacity:0.7;fill:#F2F4F4;enable-background:new    ;}
	.st1{fill:none;stroke:#4D4D4D;stroke-width:1.71;stroke-linecap:round;stroke-linejoin:round;stroke-miterlimit:10;}
</style>
<g id="Layer_1_2_">
	<g id="Layer_1_1_">
	</g>
	<g id="col:_light_green">
	</g>
	<g id="col:_orange">
	</g>
</g>
<g id="col:_purple">
</g>
<g id="lines">
	<g>
		<path id="XMLID_2594_" class="st0" d="M-249.7,369.8c-2-1.2-16.6,1-19.4,1.1c-3.2,0.2-4.3,4,0.3,6.4c6.7,3.4,7.8,8.3,16.7,2.1
			c2.1-1.5,6.5-2.6,5.5-7.3C-246.7,371.3-249,370.2-249.7,369.8L-249.7,369.8z M-260.1,297.4c-2.3,2.4-0.8,13.5-1.2,19
			c-0.4,7.1-1.9,12.3-5,17.1c-1.2,1.8,1.9,3.8,3.2,4.5c3.3,1.6,6.4,3.3,9.3,0.5c5.9-5.7,6.2-2,1.3-9.8c-3.5-5.7-2.6-22.1-2.9-28.8
			c-0.1-3.5-5.5-2.6-3-2.6L-260.1,297.4z M-242.8,319.6c10,0,14.8,3.2,26.4,0.2c6.9-1.8,1.2,6.1,0.1,8.8c-2.8,7.5-15.2,4.4-21.4,4.6
			c-1.6,0.1-7.5-1.8-3.4-4.3c1.4-0.9-2.5-1.8-2.4-5.1c0.1-1-6.3-3.3-1-4.6C-244.3,319.3-243.2,319.6-242.8,319.6L-242.8,319.6z
			 M-218.4,336.3c-2,3.6-14.8,2-18.7,1.2c-3.3-0.7-3.4,0.1-2.6,3.7c0.9,4.3,3.8,5.4,2.2,9.7c0,0.1-0.5,13,0.1,13.3
			c4.3,2.5,15.3-14.5,17-18C-219.6,344.5-218.2,336-218.4,336.3L-218.4,336.3z M-279.6,336.7c-2.7-0.5-9.8,1.7-18.2-0.2
			c-4.5-1-1.9,4.7-2.2,7.2c-0.4,4.4,8.6,17,14.3,18.4c3.3,0.8,3.7,1.9,2.2-5.1c-0.9-4.4-2.8-2.8,0.5-7c2-2.5-0.5-4.5,1.7-6.8
			C-279.4,341.2-279.4,336.7-279.6,336.7L-279.6,336.7z M-275.7,319.6c-10,0-14.8,3.2-26.4,0.2c-6.9-1.8-1.1,6.1-0.1,8.8
			c2.8,7.5,15.1,4.4,21.4,4.6c1.6,0.1,7.5-1.8,3.4-4.3c-1.4-0.9,2.5-1.8,2.4-5.1c0-1,6.4-3.3,1-4.6
			C-274.2,319.3-275.3,319.6-275.7,319.6L-275.7,319.6z M-248.6,256.9c-12.7-0.8-25.4-2.3-37.5,2.2c-3.2,1.2,7.7,1.9-2.7,4
			c-3.1,8.8-22.5,6.4-4.3,10.7c1.9,8.3-2.8,4,9.6,5.3c1.9,0.2-4.3,4.5,4.9,5c7.8,0.4,18.8,7.1,31.6-0.5c8.2-4.9,22.9-0.2,14.1-7.9
			c-6.9-6,10.7,1.1,0.8-9.2c0.4-1.5,10.7-1.2-6.7-7.5C-241.9,257.8-245.1,257.1-248.6,256.9L-248.6,256.9z"/>
		<g id="XMLID_1480_">
			<path id="XMLID_1540_" class="st1" d="M-320.9,295.6c-3.6-1.3-6.5-1.1-7.1,2.9c-0.7,4.5,2.9,7.2,4.7,10.8
				c1.5,3.1,6.3,26.2,12.8,22.1"/>
			<path id="XMLID_1539_" class="st1" d="M-308.2,261.9c4.5,1.5-8.1,9.6-9.8,10.6c-5.9,3.7-20.7,20-5,21.1"/>
			<path id="XMLID_1538_" class="st1" d="M-328.6,274.6c0.2-5,1.4-7.7,6.9-10.7c5.3-2.9,10.9-2.8,16.6-4.5c5.4-1.6,8.2-5.8,12.5-9.2
				"/>
			<path id="XMLID_1537_" class="st1" d="M-321,237.7c-5.4,20,24.5,18.4,34.6,11.3"/>
			<path id="XMLID_1536_" class="st1" d="M-281.9,249.5c-5.2-1.2-11.2-1.6-16.6-1c-5.4,0.6-9.2,1.6-12.8-3.5
				c-3-4.3-4.3-11.4-1.8-16.2c3.1-5.8,10.2-6.3,15.8-5.9"/>
			<path id="XMLID_1535_" class="st1" d="M-297.8,228.6c-2.5,0.3-3.4,2.4-4.3,4.7c-2.2,5.3-2.4,8.7,2.8,10.2
				c12.4,3.6,27.7-5.4,36.9,7.9"/>
			<path id="XMLID_1534_" class="st1" d="M-288.9,217.4c-2.2,0.5-2.9,6.9-3,9c-0.4,9.7,11.7,14.5,19.4,15.4"/>
			<path id="XMLID_1533_" class="st1" d="M-279.8,222.7c-5,11.9,10.7,20,18.7,24.1"/>
			<path id="XMLID_1532_" class="st1" d="M-257.8,247.3c9.6-2.7,22.9-20.7,17-32.8"/>
			<path id="XMLID_1531_" class="st1" d="M-253.1,248.2c11.1-2.9,19.8-14.3,22.3-25.3"/>
			<path id="XMLID_1530_" class="st1" d="M-241,250.9c2.9-2.1,8.3-0.9,11.5-0.7c5,0.3,10.4,1.1,15.4,0c11.8-2.6,7.3-23.8-3.9-22.7"
				/>
			<path id="XMLID_1529_" class="st1" d="M-245.4,250c3.3-9,18.8-1,24.4-4.3c5-2.8,4.2-11.3-0.9-13.7"/>
			<path id="XMLID_1528_" class="st1" d="M-230.4,254c8.3,0.2,21.2,3,26.6,10.6"/>
			<path id="XMLID_1527_" class="st1" d="M-218.9,262.5c3.1,0.6,6.7,1.9,9.5,3.4c4.2,2.2,4.7,4.5,6.3,8.9c1.6,4.4,5.2,8.4,10.4,8.2"
				/>
			<path id="XMLID_1526_" class="st1" d="M-212.6,270.8c3.7,2.9,6.2,6.2,8.1,10.7c1.5,3.3,2.4,8.4,5.5,10.5"/>
			<path id="XMLID_1525_" class="st1" d="M-330.2,278.8c0.2-5.7-1.2-10.9,1-16.5"/>
			<path id="XMLID_1524_" class="st1" d="M-298.2,220.1c3-8.5,13.3-10.3,20.9-10.7c4.4-0.2,7.9,0,12-1.2c4.7-1.4,9.4-1,14.2-0.4
				c14,1.7,25.4,5.3,35,16.4"/>
			<path id="XMLID_1523_" class="st1" d="M-215.3,233.5c5,0.7,10.9,6.4,13.7,10.5c5.6,8.1,7.7,18.9,8.1,28.7"/>
			<path id="XMLID_1522_" class="st1" d="M-269.5,213.1c-0.9,12.6,2.8,23.8,8.3,34.8"/>
			<path id="XMLID_1521_" class="st1" d="M-321.5,287.3c-1.9,5.2,1.9,13.1,4.7,17.5c-0.3-2.3-1.1-4.5-1.4-6.8
				c-1.1-7.9-0.8-16.3,2.4-23.6"/>
			<path id="XMLID_1520_" class="st1" d="M-196.8,295.6c3.6-1.3,6.5-1.1,7.1,2.9c0.7,4.5-2.9,7.2-4.7,10.8
				c-1.5,3.1-6.3,26.2-12.8,22.1"/>
			<path id="XMLID_1519_" class="st1" d="M-201.4,317.8c-0.1,1.1-1,2.6-1.4,3.7c-0.8,2-1.4,4-2,6.1c-0.7,2.4-1.5,4.8-2.3,7.1
				c-0.9,2.6-1.1,5.1-1.7,7.7c-1.2,4.9-2.2,10-4.1,14.7c-2.5,6.1-7.2,10.1-12,14.4c-6.1,5.3-13.1,8.5-20.2,12.4
				c-3.3,1.8-5.8,4.4-9.6,5v0.1c-2.4,0.3-5.9,0.3-8.3-0.1c-3.8-0.6-6.3-3.2-9.6-5c-7.1-3.9-14.1-7.1-20.2-12.4
				c-4.8-4.2-9.5-8.2-12-14.4c-1.9-4.7-2.9-9.8-4.1-14.7c-0.7-2.6-0.8-5.2-1.7-7.7c-0.8-2.4-1.6-4.7-2.3-7.1c-0.6-2.1-1.2-4.1-2-6.1
				c-0.4-1.1-1.3-2.6-1.4-3.7"/>
			<path id="XMLID_1518_" class="st1" d="M-204.6,278.6c2.6,2.8,2.7,7.2,3.3,10.7c0.6,4,1.7,9.9,0.3,13.8c4.4-6,5.9-15.9,7.1-23.2"
				/>
			<path id="XMLID_1517_" class="st1" d="M-270.2,300.7c6.1,3.3,5.2,14.4,4.6,20"/>
			<path id="XMLID_1516_" class="st1" d="M-265.5,339.2c-0.3,0.5-0.9,0.7-1.4,0.4c0.7-1.7,3.2,1.5,4.5,1.3"/>
			<path id="XMLID_1515_" class="st1" d="M-257.3,340.9c1,0.3,4.3-3.3,5-1.2c-0.7,0.4-1.4,0.5-2.2,0.5"/>
			<path id="XMLID_1514_" class="st1" d="M-305.2,302.3c2-2.2,6.5-3.6,9.8-3.7c7.2-0.3,14.7,3.1,19.1,8.8"/>
			<path id="XMLID_1513_" class="st1" d="M-305.3,304.3c2-0.3,3.5,2.4,4.7,3.6c1.9,1.9,5.5,2.7,8.1,2.8c2.9,0.1,5.4-1.6,8.2-2.2
				c2.4-0.4,6.7-1.4,8.4,0.8"/>
			<path id="XMLID_1512_" class="st1" d="M-309.8,296.2c-1.8,2.9,3.9,6.4,6.4,6.2"/>
			<path id="XMLID_1511_" class="st1" d="M-302.5,300.3c-1.4-0.4-3.8-1.4-3.6-3.3c-0.1-0.3-0.1-0.8,0.2-1.1"/>
			<path id="XMLID_1510_" class="st1" d="M-308.4,289.6c1.8-2.3,5.2-3,7.9-3.3c6.9-0.7,14.4-0.3,20.5,3.4"/>
			<path id="XMLID_1509_" class="st1" d="M-248.1,290.7c1.6-0.7,2.9-1.7,4.7-2.2c2.6-0.8,5.2-1.8,7.9-2.5c3.2-0.8,6.4-1.8,9.7-2.2
				c2.8-0.3,4.8,0.5,7.3,1.8"/>
			<path id="XMLID_1508_" class="st1" d="M-298.2,299.4c-0.9,3.8,0.9,7.2,4.8,7.9c3.4,0.6,8.8-1.5,8.4-5.8"/>
			<path id="XMLID_1507_" class="st1" d="M-293.4,301.4c-1.5,2.9,6.2,0.7,2-1.1c-1.4-0.6-2.9,0.3-2.5,1.9s3.3,2,4,0.4
				c0.5-1.3-1.3-2.6-2.6-1.8c-1.1,0.7-0.3,2.1,0.9,2c1.4-0.1,1.5-2.1,0.1-1.9c-1,0.1-1.1,1.8,0.1,1.7c0.2-0.7-0.2-1.2-0.9-1.4
				c-0.1,0.7-0.1,1.3,0.3,1.9"/>
			<path id="XMLID_1506_" class="st1" d="M-307.3,299.4c-0.1-1.2,1.5-2,2.4-2.4c4.2-2.3,9.2-2.4,13.9-2.1"/>
			<path id="XMLID_1505_" class="st1" d="M-220.6,302.6c-2-2.2-6.5-3.6-9.8-3.7c-7.2-0.3-14.7,3.1-19.1,8.9"/>
			<path id="XMLID_1504_" class="st1" d="M-220.4,304.6c-2-0.3-3.5,2.4-4.7,3.6c-1.9,1.9-5.5,2.7-8.1,2.8c-2.9,0.1-5.4-1.6-8.2-2.2
				c-2.4-0.4-6.7-1.4-8.4,0.8"/>
			<path id="XMLID_1503_" class="st1" d="M-215.9,296.5c1.8,2.9-3.9,6.4-6.4,6.2"/>
			<path id="XMLID_1502_" class="st1" d="M-219.7,297c0.2,1.8-2.1,2.9-3.6,3.3"/>
			<path id="XMLID_1501_" class="st1" d="M-221.8,295.8c-0.8,1.8-2.7,2.3-4.4,2.9"/>
			<path id="XMLID_1500_" class="st1" d="M-225.9,295.4c-0.2,1.3-2.1,2.5-3.4,2.5"/>
			<path id="XMLID_1499_" class="st1" d="M-230.2,296.7c-0.3,1-1.9,1.7-2.9,1.5"/>
			<path id="XMLID_1498_" class="st1" d="M-227.6,299.6c0.9,3.8-0.9,7.2-4.8,8c-3.4,0.6-8.8-1.5-8.3-5.8"/>
			<path id="XMLID_1497_" class="st1" d="M-232.4,301.7c1.5,2.9-6.2,0.7-2-1.1c1.4-0.6,2.9,0.3,2.5,1.9c-0.4,1.6-3.3,2-4,0.4
				c-0.5-1.3,1.3-2.6,2.6-1.8c1.1,0.7,0.3,2.1-0.9,2c-1.4-0.1-1.5-2-0.1-1.9c1,0.1,1.1,1.8-0.1,1.7c-0.2-0.7,0.2-1.2,0.9-1.4
				c0.1,0.7,0.1,1.3-0.3,1.8"/>
			<path id="XMLID_1496_" class="st1" d="M-218.4,299.6c0.1-1.2-1.5-2-2.4-2.4c-4.2-2.3-9.2-2.4-13.9-2.1"/>
			<path id="XMLID_1495_" class="st1" d="M-303.7,294.9c-0.3,0.7,0.4,1.8,0.8,2.2c0.5,0.7,1.1,1.2,2,1.4c0.7,0.1,1.4,0.2,2.2,0.5"/>
			<path id="XMLID_1494_" class="st1" d="M-300.4,294.9c-0.1,0.8,0.5,1.5,1,2c0.7,0.7,2.7,2.3,3.8,1.5"/>
			<path id="XMLID_1493_" class="st1" d="M-296.6,296.2c0.6,1.4,1.8,1.6,3.1,2.1"/>
			<path id="XMLID_1492_" class="st1" d="M-293.6,296.7c-0.1,1.2,2,1.9,2.8,2"/>
			<path id="XMLID_1491_" class="st1" d="M-305.9,305.8c-0.1-0.2,0.1-0.5,0.3-0.6c0.4-0.4,1.2-0.3,1.7-0.3"/>
			<path id="XMLID_1489_" class="st1" d="M-304,306.6C-304,306.5-304.1,306.6-304,306.6c0.5-0.4,0.9-0.5,1.5-0.5"/>
			<path id="XMLID_1488_" class="st1" d="M-302.5,308c0-0.5,0.8-0.5,1.1-0.5"/>
			<path id="XMLID_1487_" class="st1" d="M-270.9,354.5c0.9,0,1.8,0,2.6-0.2c1.1-0.3,2.2-1.1,3.2-1.4c1.4-0.4,2.4,1.4,3.8,2
				c1.6,0.6,2.9-0.2,4.1-1.5c0.8-0.9,0.8-1,1.8-0.5c1.9,0.9,4.4,2.4,6.6,2.2"/>
			<path id="XMLID_1486_" class="st1" d="M-280,356.5c5.5,0.4,10.1,0.3,15.5,1.1c1.4,0.2,3,1.2,4.4,1.1c1.3-0.1,2.1-1.3,3.5-1.4
				c2.2-0.2,4.5-0.2,6.7-0.3c2-0.1,3.9,0,5.9-0.9c1.9-0.9,3.3,0.4,5.5,0.5"/>
			<path id="XMLID_1485_" class="st1" d="M-262.2,371c1.3-1,3.1-0.8,4.6-0.8"/>
			<path id="XMLID_1484_" class="st1" d="M-270.5,361.7c1.4,2,5.5,3.1,7.6,3.5c4.5,1,10-1.4,13.7-4"/>
			<path id="XMLID_1483_" class="st1" d="M-269.8,334.3c-0.6,1.1-1,2.5-1,3.7c0.1,3.3,4,3.7,6.5,3.7"/>
			<path id="XMLID_1482_" class="st1" d="M-252.4,341.5c0.8-0.5,2-0.4,2.9-0.8c2.4-1,1.1-4.3,0.6-6.1"/>
			<path id="XMLID_1481_" class="st1" d="M-261.5,342.8c1.4,1.9,0.7,5.2-0.1,7.1"/>
		</g>
	</g>
</g>
</svg>
